<?xml version="1.0" encoding="utf-8"?>
<!-- Generator: Adobe Illustrator 24.1.3, SVG Export Plug-In . SVG Version: 6.00 Build 0)  -->
<svg version="1.1" id="Layer_1" xmlns="http://www.w3.org/2000/svg" xmlns:xlink="http://www.w3.org/1999/xlink" x="0px" y="0px"
	 viewBox="0 0 90.8 90.2" style="enable-background:new 0 0 90.8 90.2;" xml:space="preserve">
<style type="text/css">
	.st0{fill:#FFFFFF;}
</style>
<g>
	<path class="st0" d="M64,9.1l0.1,1.6l-1.3-0.1l1,0.9l-1.3,1L62,11l-0.2,1.3l-1.4-0.6l0.8-1.1l-1.3,0.5l-0.2-1.7L61,9.6l-1-0.8
		l1.2-0.9l0.6,1.3L62,7.8l1.5,0.6l-0.8,1.1L64,9.1z"/>
	<path class="st0" d="M68,13.4c0.6-0.3,1.3-0.4,2-0.3s1.3,0.4,2,0.9c0.5,0.4,0.9,0.9,1.2,1.5c0.3,0.5,0.4,1.1,0.4,1.7
		c0,0.6-0.2,1.2-0.5,1.7l-2.1-1.6c0.1-0.3,0.1-0.5,0-0.8c-0.1-0.3-0.2-0.5-0.5-0.6c-0.3-0.3-0.7-0.3-1.1-0.2
		c-0.4,0.1-0.7,0.4-1.1,0.8c-0.3,0.4-0.5,0.8-0.5,1.2c0,0.4,0.2,0.7,0.5,1c0.2,0.2,0.5,0.3,0.7,0.3c0.3,0,0.5,0,0.8-0.2l2.1,1.6
		c-0.5,0.4-1,0.7-1.6,0.9c-0.6,0.2-1.1,0.2-1.7,0c-0.6-0.1-1.2-0.4-1.7-0.8c-0.6-0.5-1.1-1.1-1.3-1.7c-0.3-0.6-0.3-1.3-0.2-2
		c0.1-0.7,0.4-1.3,0.9-1.9C66.8,14.1,67.4,13.7,68,13.4z"/>
	<path class="st0" d="M73.3,23.9l1.6,1.8l-1.4,1.2l-3.2-3.7l6.1-5.2l1.6,1.9L73.3,23.9z"/>
	<path class="st0" d="M81.7,25.1L75,29.5l-1.4-2.1l6.7-4.3L81.7,25.1z"/>
	<path class="st0" d="M76.4,35.4l0.9-1.2c-0.1-0.1-0.2-0.3-0.3-0.5c-0.3-0.7-0.4-1.4-0.3-2.1c0.1-0.7,0.3-1.4,0.8-1.9
		c0.4-0.6,1-1,1.7-1.3c0.7-0.3,1.4-0.4,2.2-0.3c0.7,0.1,1.4,0.4,1.9,0.8c0.6,0.4,1,1,1.3,1.7c0.3,0.7,0.4,1.4,0.3,2.1
		c-0.1,0.7-0.3,1.4-0.8,1.9c-0.4,0.6-1,1-1.7,1.3c-0.6,0.3-1.2,0.4-1.8,0.4S79.5,36,79,35.8l-1.4,2.3L76.4,35.4z M79.1,31.5
		c-0.2,0.4-0.2,0.8,0,1.3c0.2,0.5,0.5,0.7,0.9,0.9c0.4,0.1,0.8,0.1,1.3-0.1c0.5-0.2,0.8-0.5,1-0.9c0.2-0.4,0.2-0.8,0-1.2
		c-0.2-0.5-0.5-0.8-0.9-0.9c-0.4-0.1-0.9-0.1-1.4,0.1C79.7,30.8,79.3,31.1,79.1,31.5z"/>
	<path class="st0" d="M87,38.9l-4.4,0.8c-0.4,0.1-0.6,0.2-0.8,0.4c-0.2,0.2-0.2,0.5-0.2,0.8c0.1,0.4,0.2,0.6,0.5,0.7
		s0.5,0.2,0.9,0.1l4.4-0.8l0.4,2.5l-4.4,0.8c-0.7,0.1-1.4,0.1-2-0.1c-0.6-0.2-1.1-0.6-1.4-1.1c-0.4-0.5-0.6-1.1-0.7-1.7
		c-0.1-0.7-0.1-1.3,0.1-1.8c0.2-0.6,0.5-1,1-1.4c0.5-0.4,1.1-0.6,1.8-0.8l4.4-0.8L87,38.9z"/>
	<path class="st0" d="M85.8,48.2l-1,0l-0.1,2.5l-1.9-0.1l0.1-2.5l-1.1,0l-0.1,2.8l-2-0.1l0.2-5.3l8,0.2L87.7,51l-2-0.1L85.8,48.2z"
		/>
	<path class="st0" d="M81.5,60.2c-0.3-0.3-0.6-0.8-0.7-1.3c-0.1-0.5-0.1-1.1,0.1-1.7l0.3-1l-2.4-0.7l0.7-2.4l7.7,2.1l-0.9,3.4
		c-0.3,0.9-0.7,1.6-1.3,2c-0.6,0.4-1.3,0.4-2.1,0.2C82.2,60.7,81.8,60.5,81.5,60.2z M83.4,58.4c0.5,0.1,0.8-0.1,0.9-0.6l0.2-0.7
		l-1.4-0.4l-0.2,0.7C82.8,58,82.9,58.3,83.4,58.4z"/>
	<path class="st0" d="M76.2,64.9l1.3-2.3l-0.9-0.9l1.2-2.3l5.7,6.3l-1.4,2.5L73.7,67l1.2-2.3L76.2,64.9z M78.2,65.3l2.3,0.4L78.9,64
		L78.2,65.3z"/>
	<path class="st0" d="M70.9,70.1l3.1,0.7l0,0l-2.2-1.9l1.6-1.9l6,5.2l-2.4,2.8c-0.4,0.5-0.9,0.8-1.3,1c-0.5,0.2-0.9,0.3-1.4,0.2
		c-0.4-0.1-0.9-0.3-1.2-0.6c-0.4-0.3-0.7-0.8-0.8-1.3s-0.1-1,0.2-1.5l-3.4-0.7L70.9,70.1z M75.3,71.9l-0.6,0.7
		c-0.2,0.2-0.2,0.4-0.2,0.5c0,0.2,0.1,0.3,0.3,0.5c0.2,0.1,0.3,0.2,0.5,0.2c0.2,0,0.3-0.1,0.5-0.3l0.6-0.7L75.3,71.9z"/>
	<path class="st0" d="M65.5,76.4l2.1-1.6l-0.4-1.2l2.1-1.6l2.4,8.2l-2.3,1.7l-7.1-4.7l2.1-1.6L65.5,76.4z M67.1,77.6l1.9,1.4
		l-0.7-2.2L67.1,77.6z"/>
	<path class="st0" d="M60,78.8c0.7,0.2,1.3,0.7,1.6,1.5l-2.5,0.9c-0.2-0.4-0.5-0.6-0.8-0.4c-0.1,0-0.2,0.1-0.3,0.2s-0.1,0.2,0,0.3
		c0.1,0.2,0.2,0.3,0.4,0.3c0.2,0,0.6,0.1,1,0c0.5,0,1,0,1.4,0c0.4,0,0.7,0.2,1.1,0.4c0.3,0.2,0.6,0.6,0.8,1.1
		c0.2,0.5,0.2,0.9,0.1,1.4c-0.1,0.4-0.4,0.8-0.7,1.2c-0.4,0.3-0.8,0.6-1.4,0.8c-0.9,0.3-1.7,0.4-2.4,0.2c-0.7-0.2-1.2-0.7-1.5-1.5
		l2.5-1c0.1,0.2,0.2,0.3,0.3,0.4c0.1,0.1,0.3,0.1,0.4,0c0.1,0,0.2-0.1,0.2-0.2c0-0.1,0-0.2,0-0.3c-0.1-0.2-0.2-0.3-0.4-0.3
		c-0.2,0-0.6-0.1-1-0.1c-0.5,0-1,0-1.4-0.1c-0.4,0-0.7-0.2-1-0.4c-0.3-0.2-0.6-0.5-0.7-1c-0.2-0.5-0.2-0.9-0.1-1.4
		c0.1-0.4,0.3-0.9,0.7-1.2c0.4-0.4,0.8-0.7,1.4-0.9C58.4,78.7,59.2,78.6,60,78.8z"/>
	<path class="st0" d="M49.4,82.3l2.6-0.4l0.2-1.2l2.6-0.4l-1.8,8.3L50.2,89l-4-7.5l2.6-0.4L49.4,82.3z M50.3,84.1l1,2.1l0.4-2.3
		L50.3,84.1z"/>
	<path class="st0" d="M39.4,84.3c-0.2-0.4-0.3-0.8-0.3-1.2c0.1-0.7,0.3-1.2,0.8-1.6c0.5-0.3,1.2-0.5,2-0.4l4.2,0.3l-0.6,7.9L41.4,89
		c-0.8-0.1-1.4-0.3-1.9-0.7c-0.4-0.4-0.6-0.9-0.6-1.6c0-0.5,0.2-0.8,0.5-1.1c0.3-0.3,0.6-0.5,1-0.6C40,84.9,39.6,84.6,39.4,84.3z
		 M43.2,86.1l-1-0.1c-0.2,0-0.4,0-0.5,0.1c-0.1,0.1-0.2,0.2-0.2,0.4c0,0.2,0,0.3,0.1,0.4c0.1,0.1,0.3,0.2,0.5,0.2l1,0.1L43.2,86.1z
		 M41.8,83.2c-0.1,0.1-0.2,0.2-0.2,0.4c0,0.4,0.2,0.6,0.6,0.6l1.1,0.1l0.1-1.1l-1.1-0.1C42.1,83.1,41.9,83.1,41.8,83.2z"/>
	<path class="st0" d="M34.8,85.8l0.3-0.9l-2.4-0.7l0.5-1.8l2.4,0.7l0.3-1.1l-2.7-0.8l0.5-1.9l5.1,1.4l-2.2,7.7l-5.1-1.4l0.5-1.9
		L34.8,85.8z"/>
	<path class="st0" d="M29.6,77.3l0.1,3.2l0,0l1.3-2.6l2.2,1.1l-3.6,7.1l-3.3-1.7c-0.6-0.3-1-0.6-1.3-1c-0.3-0.4-0.5-0.8-0.5-1.3
		s0.1-0.9,0.3-1.3c0.2-0.5,0.6-0.8,1-1.1c0.5-0.2,1-0.3,1.5-0.2L27.1,76L29.6,77.3z M28.9,82L28,81.6c-0.2-0.1-0.4-0.1-0.6-0.1
		c-0.2,0-0.3,0.2-0.4,0.4C27,82,26.9,82.2,27,82.4c0.1,0.2,0.2,0.3,0.4,0.4l0.9,0.4L28.9,82z"/>
	<path class="st0" d="M12.8,74l5.6-5.7l1.8,1.7l-2.8,2.9l3.6-2l1.5,1.5l-1.9,3.7l2.8-2.9l1.8,1.7l-5.6,5.7l-2.2-2.1l2.1-4.7L15,76.1
		L12.8,74z"/>
	<path class="st0" d="M14.4,63.9l1.4,2.3l1.2-0.3l1.3,2.3L10,69.7l-1.5-2.5l5.4-6.6l1.3,2.3L14.4,63.9z M13.1,65.4l-1.5,1.7l2.3-0.5
		L13.1,65.4z"/>
	<path class="st0" d="M5.7,60.8l7.5-2.8l0.9,2.3l-7.5,2.8L5.7,60.8z"/>
	<path class="st0" d="M12.1,56.6c-0.3,0.7-0.9,1.2-1.7,1.4l-0.6-2.6c0.4-0.1,0.6-0.4,0.5-0.7c0-0.1-0.1-0.2-0.2-0.3
		c-0.1-0.1-0.2-0.1-0.3-0.1c-0.2,0-0.3,0.2-0.4,0.4c-0.1,0.2-0.1,0.6-0.2,1c-0.1,0.5-0.1,1-0.2,1.3c-0.1,0.4-0.3,0.7-0.6,1
		c-0.3,0.3-0.7,0.5-1.2,0.6c-0.5,0.1-1,0.1-1.4-0.1c-0.4-0.2-0.8-0.5-1-0.9c-0.3-0.4-0.5-0.9-0.6-1.5c-0.2-1-0.2-1.8,0.2-2.4
		c0.3-0.7,0.9-1.1,1.7-1.3l0.6,2.6c-0.2,0.1-0.4,0.1-0.4,0.3c-0.1,0.1-0.1,0.3-0.1,0.4c0,0.1,0.1,0.2,0.2,0.2c0.1,0.1,0.2,0.1,0.3,0
		c0.2,0,0.3-0.2,0.4-0.4c0.1-0.2,0.1-0.6,0.2-1c0.1-0.5,0.2-1,0.3-1.3c0.1-0.4,0.3-0.7,0.5-1c0.2-0.3,0.6-0.5,1.1-0.6
		c0.5-0.1,0.9-0.1,1.4,0.1c0.4,0.2,0.8,0.4,1.1,0.8c0.3,0.4,0.5,0.9,0.7,1.5C12.5,55.1,12.4,55.9,12.1,56.6z"/>
	<path class="st0" d="M3.5,44.6l1.4-0.7l0.4,1.3l0.4-1.2l1.4,0.9l-1,1l1.3-0.3l0,1.6l-1.3-0.3l1,1l-1.5,0.8l-0.4-1.3l-0.4,1.2
		l-1.3-0.8l1-1L3,46.9l0-1.6l1.3,0.4L3.5,44.6z"/>
	<path class="st0" d="M5.9,39.3c-0.5-0.5-0.8-1-1-1.7c-0.2-0.7-0.1-1.4,0.1-2.2c0.2-0.7,0.5-1.2,0.9-1.7c0.4-0.5,0.9-0.8,1.4-1
		c0.5-0.2,1.1-0.3,1.8-0.2l-0.7,2.5c-0.3,0-0.5,0.2-0.7,0.3s-0.3,0.4-0.4,0.7c-0.1,0.4-0.1,0.8,0.2,1.1c0.2,0.3,0.6,0.6,1.1,0.7
		c0.5,0.1,1,0.1,1.3,0c0.4-0.1,0.6-0.4,0.7-0.8c0.1-0.3,0.1-0.5,0-0.8c-0.1-0.3-0.2-0.5-0.4-0.7l0.7-2.5c0.6,0.3,1,0.7,1.4,1.1
		c0.4,0.5,0.6,1,0.7,1.6c0.1,0.6,0.1,1.2-0.1,1.9c-0.2,0.8-0.6,1.4-1.1,1.9c-0.5,0.5-1.1,0.8-1.8,0.9c-0.7,0.1-1.4,0.1-2.2-0.1
		C7.1,40.1,6.4,39.7,5.9,39.3z"/>
	<path class="st0" d="M13.6,30.4l1.1-2.1l1.7,0.9l-2.2,4.4l-7.1-3.6l1.1-2.2L13.6,30.4z"/>
	<path class="st0" d="M11.6,22.1l6.6,4.5l-1.4,2.1l-6.6-4.5L11.6,22.1z"/>
	<path class="st0" d="M23.1,23l-1.4-0.3c-0.1,0.1-0.2,0.3-0.4,0.5c-0.5,0.5-1.1,0.9-1.8,1.1c-0.7,0.2-1.4,0.2-2.1,0
		c-0.7-0.2-1.3-0.5-1.9-1.1c-0.6-0.5-0.9-1.2-1.1-1.9c-0.2-0.7-0.2-1.4,0-2.1c0.2-0.7,0.5-1.3,1.1-1.8c0.5-0.5,1.1-0.9,1.8-1.1
		c0.7-0.2,1.4-0.2,2.1,0c0.7,0.2,1.3,0.5,1.9,1.1c0.5,0.4,0.8,0.9,1,1.5c0.2,0.6,0.3,1.1,0.3,1.7l2.7,0.4L23.1,23z M18.5,22
		c0.4,0,0.8-0.1,1.2-0.5c0.3-0.4,0.5-0.7,0.5-1.2c0-0.4-0.3-0.8-0.6-1.2c-0.4-0.4-0.8-0.6-1.2-0.6s-0.8,0.1-1.1,0.5
		c-0.4,0.4-0.5,0.7-0.5,1.2c0,0.4,0.3,0.8,0.6,1.2C17.6,21.8,18,22,18.5,22z"/>
	<path class="st0" d="M22.3,11.9l2.4,3.8c0.2,0.3,0.4,0.5,0.7,0.6c0.3,0.1,0.5,0,0.8-0.1c0.3-0.2,0.5-0.4,0.5-0.7
		c0-0.3,0-0.6-0.2-0.9l-2.4-3.8l2.1-1.3l2.4,3.8c0.4,0.6,0.6,1.3,0.6,1.9c0,0.6-0.1,1.2-0.5,1.7c-0.3,0.5-0.8,1-1.3,1.3
		c-0.6,0.4-1.2,0.6-1.7,0.6c-0.6,0-1.1-0.1-1.7-0.4c-0.5-0.3-1-0.8-1.4-1.4l-2.4-3.8L22.3,11.9z"/>
	<path class="st0" d="M31.3,9.5l0.3,0.9L34,9.6l0.7,1.8l-2.3,0.9l0.4,1.1l2.6-1l0.7,1.9l-5,1.9l-2.8-7.5l5-1.9l0.7,1.9L31.3,9.5z"/>
	<path class="st0" d="M42.9,4.9l0.7,5.1c0.1,0.9,0,1.7-0.5,2.2c-0.4,0.6-1.1,0.9-2,1c-1,0.1-1.8,0-2.4-0.5c-0.6-0.5-1-1.2-1.2-2.2
		l2.4-0.3c0,0.3,0.1,0.5,0.2,0.7c0.1,0.1,0.3,0.2,0.4,0.1c0.1,0,0.3-0.1,0.3-0.2c0.1-0.1,0.1-0.3,0.1-0.5l-0.7-5.1L42.9,4.9z"/>
	<path class="st0" d="M49.8,11.9l-2.6-0.2l-0.5,1.2L44,12.6l3.5-7.7l2.9,0.2l2.3,8.2l-2.6-0.2L49.8,11.9z M50.6,3.6l-3,0.8l0.1-1.7
		l3-1L50.6,3.6z M49.3,10l-0.5-2.3l-0.9,2.2L49.3,10z"/>
</g>
</svg>
