<?xml version="1.0" encoding="utf-8"?>
<!-- Generator: Adobe Illustrator 24.1.3, SVG Export Plug-In . SVG Version: 6.00 Build 0)  -->
<svg version="1.1" id="Layer_1" xmlns="http://www.w3.org/2000/svg" xmlns:xlink="http://www.w3.org/1999/xlink" x="0px" y="0px"
	 viewBox="0 0 44 44" style="enable-background:new 0 0 44 44;" xml:space="preserve">
<style type="text/css">
	.st0{fill:#40BF2C;}
	.st1{fill:#EFEFEF;}
</style>
<g>
	<g>
		<path class="st0" d="M17.3,6.3H1V2.6h16.3V6.3z M4.8,9.7v7.2h12.6v3.8H1v-11H4.8z"/>
		<path class="st1" d="M34.2,2.6h4.3v18.1h-3.8v-11l-5.8,11L23,9.7v11h-3.8V2.6h4.3l5.4,10.6L34.2,2.6z"/>
		<path class="st1" d="M17.2,27.6H0.9v-3.8h16.3V27.6z M13.4,38.2V31h3.8v11H0.9v-3.8H13.4z"/>
		<path class="st0" d="M38.5,23.8v10.9H23.6V42h-4.5V31h14.9v-3.4H19.1v-3.8H38.5z"/>
	</g>
	<g>
		<path class="st1" d="M43.4,2.9h-2.2V2.4h2.2V2.9z M41.7,3.4v1h1.7v0.5h-2.2V3.4H41.7z"/>
		<path class="st1" d="M41.2,6.2h2.2v2.4h-2.2V6.2z M42.9,8.1V6.7h-1.2v1.4H42.9z"/>
		<path class="st1" d="M43,9.9h0.6v2.4H43v-1.5l-0.8,1.5l-0.8-1.5v1.5H41V9.9h0.6l0.7,1.4L43,9.9z"/>
		<path class="st1" d="M42.9,13.7h0.5v2.4h-2.2v-2.4h0.5v1.9h1.2V13.7z"/>
		<path class="st1" d="M43.4,17.4v2.4h0l-0.5-0.4v0l-1.2-0.9v1.3h-0.5v-2.4l1.7,1.3v-1.3H43.4z"/>
		<path class="st1" d="M42.5,21.7v1.4h0.3v0.5h-1v-0.5H42v-1.4h-0.2v-0.5h1v0.5H42.5z"/>
		<path class="st1" d="M43.4,25.4h-2.2v-0.5h2.2V25.4z M41.7,25.9v1h1.7v0.5h-2.2v-1.5H41.7z"/>
		<path class="st1" d="M42.3,28.7l1.4,2.4h-2l0.2-0.4h1l-0.7-1.1l-0.9,1.5h-0.6L42.3,28.7z"/>
		<path class="st1" d="M43.4,32.9h-2.2v-0.5h2.2V32.9z M41.7,33.3v1h1.7v0.5h-2.2v-1.5H41.7z"/>
		<path class="st1" d="M42.3,36.1l1.4,2.4h-2l0.2-0.4h1L42.3,37l-0.9,1.5h-0.6L42.3,36.1z"/>
		<path class="st1" d="M41.2,39.9h2.2v2.4h-2.2V39.9z M42.9,41.8v-1.4h-1.2v1.4H42.9z"/>
	</g>
</g>
</svg>
