<?xml version="1.0" encoding="utf-8"?>
<!-- Generator: Adobe Illustrator 24.1.3, SVG Export Plug-In . SVG Version: 6.00 Build 0)  -->
<svg version="1.1" id="Layer_1" xmlns="http://www.w3.org/2000/svg" xmlns:xlink="http://www.w3.org/1999/xlink" x="0px" y="0px"
	 viewBox="0 0 90.5 90.4" style="enable-background:new 0 0 90.5 90.4;" xml:space="preserve">
<style type="text/css">
	.st0{fill:#40BF2C;}
	.st1{fill:#EFEFEF;}
</style>
<g>
	<g>
		<path class="st0" d="M36.8,17.1h-29v-6.6h29V17.1z M14.6,23.2V36H37v6.8H7.8V23.2C7.8,23.2,14.6,23.2,14.6,23.2z"/>
		<path class="st1" d="M66.8,10.6h7.6v32.2h-6.8V23.2L57.4,42.7L46.9,23.2v19.6h-6.8V10.6h7.6l9.6,18.8L66.8,10.6z"/>
		<path class="st1" d="M36.6,55h-29v-6.8h29C36.6,48.2,36.6,55,36.6,55z M29.9,73.8V61h6.8v19.6h-29v-6.8H29.9z"/>
		<path class="st0" d="M74.5,48.2v19.4H48v13h-8V61h26.5v-6H40v-6.8C40,48.2,74.5,48.2,74.5,48.2z"/>
	</g>
	<g>
		<path class="st1" d="M83.2,11.1h-3.9v-0.9h3.9V11.1z M80.2,12v1.8h3v0.9h-3.9V12H80.2z"/>
		<path class="st1" d="M79.3,17h3.9v4.3h-3.9V17z M82.3,20.3v-2.5h-2.1v2.5C80.2,20.3,82.3,20.3,82.3,20.3z"/>
		<path class="st1" d="M82.5,23.5h1.1v4.3h-1.1v-2.7l-1.4,2.7l-1.4-2.7v2.7h-0.7v-4.3H80l1.2,2.5L82.5,23.5z"/>
		<path class="st1" d="M82.3,30.3h0.9v4.3h-3.9v-4.3h0.9v3.4h2.1V30.3z"/>
		<path class="st1" d="M83.2,36.9v4.3l0,0l-0.9-0.7l0,0l-2.1-1.6v2.3h-0.9v-4.3l3,2.3v-2.3H83.2z"/>
		<path class="st1" d="M81.6,44.5V47h0.5v0.9h-1.8V47h0.4v-2.5h-0.4v-0.9h1.8v0.9H81.6z"/>
		<path class="st1" d="M83.2,51.1h-3.9v-0.9h3.9V51.1z M80.2,52v1.8h3v0.9h-3.9V52H80.2z"/>
		<path class="st1" d="M81.2,57l2.5,4.3h-3.6l0.4-0.7h1.8l-1.2-2l-1.6,2.7h-1.1L81.2,57z"/>
		<path class="st1" d="M83.2,64.4h-3.9v-0.9h3.9V64.4z M80.2,65.1v1.8h3v0.9h-3.9v-2.7H80.2z"/>
		<path class="st1" d="M81.2,70.1l2.5,4.3h-3.6l0.4-0.7h1.8l-1.1-2l-1.6,2.7h-1.1L81.2,70.1z"/>
		<path class="st1" d="M79.3,76.9h3.9v4.3h-3.9V76.9z M82.3,80.2v-2.5h-2.1v2.5H82.3z"/>
	</g>
</g>
</svg>
